# xmcd CD database file
#
# Track frame offsets:
#	150
#	17931
#	29237
#	41988
#	53273
#	70841
#	85493
#	100061
#	115477
#	133707
#	147570
#
# Disc length: 2247 seconds
#
# Revision: 1
# Processed by: cddbd v1.5.2PL0 Copyright (c) Steve Scherf et al.
# Submitted via: CDex 1.79
#
DISCID=a408c50b
DTITLE=Cody Widner - Honk Tonk Heart
DYEAR=2005
DGENRE=Country
TTITLE0=Drinkin' Doubles
TTITLE1=I'll Show Me
TTITLE2=Rosie
TTITLE3=Back In The Swing Of Things
TTITLE4=Chicago
TTITLE5=Mirrors Don`t Lie
TTITLE6=Feel Again
TTITLE7=When The Smoke Clears
TTITLE8=Momma
TTITLE9=A Honky Tonk Heart
TTITLE10=What Time Does The Band Start
EXTD=YEAR: 2005
EXTT0=
EXTT1=
EXTT2=
EXTT3=
EXTT4=
EXTT5=
EXTT6=
EXTT7=
EXTT8=
EXTT9=
EXTT10=
PLAYORDER=
